<?xml version="1.0" standalone="no"?>
<!DOCTYPE svg PUBLIC "-//W3C//DTD SVG 20010904//EN"
 "http://www.w3.org/TR/2001/REC-SVG-20010904/DTD/svg10.dtd">
<svg version="1.0" xmlns="http://www.w3.org/2000/svg"
 width="512.000000pt" height="512.000000pt" viewBox="0 0 512.000000 512.000000"
 preserveAspectRatio="xMidYMid meet">
<metadata>
Created by potrace 1.14, written by Peter Selinger 2001-2017
</metadata>
<g transform="translate(0.000000,512.000000) scale(0.100000,-0.100000)"
fill="#000000" stroke="none">
<path d="M2547 5102 c-8 -9 -250 -327 -537 -707 -288 -379 -529 -693 -534
-697 -6 -4 125 -8 292 -8 l302 0 0 -505 c0 -278 3 -505 6 -505 3 0 36 14 72
31 37 17 155 71 263 119 108 49 227 103 265 121 139 64 169 77 176 79 8 1 164
75 188 89 12 6 14 52 14 289 l-1 282 294 0 c161 0 293 3 293 6 0 3 -55 78
-123 167 -105 137 -692 910 -893 1174 -56 74 -63 80 -77 65z"/>
<path d="M1970 4770 c-432 -111 -796 -317 -1111 -630 -139 -138 -226 -244
-330 -403 -205 -313 -340 -696 -376 -1067 -9 -91 -9 -389 -1 -485 10 -101 12
-115 42 -270 12 -62 51 -202 78 -280 185 -541 582 -1021 1082 -1309 128 -74
372 -182 466 -206 19 -5 44 -11 56 -15 20 -6 20 -4 20 266 l-1 272 -75 31
c-41 18 -104 47 -140 66 -66 35 -249 151 -272 173 -7 7 -36 30 -63 52 -138
111 -399 414 -381 444 3 4 20 14 38 21 18 7 71 31 117 53 85 39 172 79 181 82
6 2 26 11 275 125 99 45 205 93 235 107 30 14 80 36 110 50 30 14 102 47 160
73 58 26 132 60 165 75 33 15 78 36 100 46 22 10 126 57 230 104 105 48 210
97 235 108 25 11 47 21 50 22 3 0 28 12 55 24 28 13 102 47 165 76 63 29 270
123 460 210 190 86 415 189 500 227 209 94 258 116 303 139 28 14 39 16 42 7
13 -37 44 -169 50 -211 4 -27 8 -59 11 -70 20 -104 20 -392 -1 -509 -3 -13 -6
-39 -9 -58 -7 -58 -43 -200 -75 -296 -133 -401 -429 -775 -791 -998 -92 -57
-224 -125 -305 -158 l-40 -16 0 -268 c0 -233 2 -269 15 -268 77 2 441 159 568
245 24 16 46 29 49 29 7 0 189 131 225 162 14 13 45 38 67 56 23 19 70 63 105
98 253 253 443 538 556 834 17 47 36 94 41 105 10 25 66 221 72 255 3 14 12
61 20 105 25 130 32 219 32 425 0 242 -7 314 -47 505 -113 543 -423 1045 -858
1389 -47 37 -93 74 -103 82 -9 8 -19 14 -20 14 -2 0 -41 25 -88 56 -109 72
-356 192 -489 239 -111 39 -331 97 -339 90 -2 -3 23 -40 56 -82 33 -43 117
-154 188 -248 378 -498 360 -476 419 -517 131 -91 331 -297 435 -451 26 -39
30 -51 21 -62 -7 -8 -16 -15 -20 -15 -7 0 -42 -15 -220 -97 -30 -14 -350 -159
-710 -323 -360 -164 -689 -314 -730 -333 -79 -36 -103 -47 -265 -120 -55 -25
-129 -58 -165 -75 -36 -16 -164 -74 -285 -130 -121 -55 -259 -118 -308 -141
-48 -23 -89 -41 -91 -41 -2 0 -42 -17 -88 -39 -45 -21 -155 -71 -243 -111 -88
-40 -166 -77 -172 -83 -7 -5 -13 -7 -13 -4 0 3 -21 -5 -47 -18 -27 -13 -51
-20 -55 -17 -6 7 -51 202 -63 277 -3 22 -8 126 -10 230 -3 209 12 344 61 524
103 381 333 734 639 980 44 35 88 69 98 75 17 10 94 109 496 639 78 103 139
187 134 187 -4 -1 -60 -14 -123 -30z"/>
<path d="M2925 2117 c-61 -29 -136 -63 -165 -76 -30 -14 -100 -45 -155 -71
-55 -26 -198 -91 -317 -145 l-218 -98 0 -51 c-1 -28 -1 -404 -1 -835 0 -611 3
-786 13 -792 6 -4 35 -11 63 -15 27 -3 59 -8 70 -10 125 -26 555 -26 690 0 11
2 43 7 70 10 28 4 57 11 65 16 12 7 14 172 14 1064 1 698 -2 1056 -9 1055 -5
0 -60 -24 -120 -52z"/>
</g>
</svg>
